<svg width="85" height="83" viewBox="0 0 85 83" fill="none" xmlns="http://www.w3.org/2000/svg">
<g clip-path="url(#clip0)">
<path fill-rule="evenodd" clip-rule="evenodd" d="M39.6929 51.9121C39.5751 53.1802 38.5543 54.1115 37.4353 54.0124C36.2968 53.9133 35.4919 52.784 35.6097 51.5159C35.7275 50.2478 36.9249 49.0788 38.0439 49.1778C39.1628 49.2967 39.8106 50.6441 39.6929 51.9121Z" fill="white"/>
<path fill-rule="evenodd" clip-rule="evenodd" d="M45.582 51.9121C45.6997 53.1802 46.7205 54.1115 47.8395 54.0124C48.9584 53.9133 49.7829 52.784 49.6651 51.5159C49.5473 50.2478 48.3499 49.0788 47.2309 49.1778C46.112 49.2967 45.4642 50.6441 45.582 51.9121Z" fill="white"/>
<path fill-rule="evenodd" clip-rule="evenodd" d="M85 42.4807C85 34.6147 81.1917 26.0749 74.6155 19.1797C74.6155 19.1797 74.2818 3.24943 70.6501 0.27736C67.3129 -1.70402 55.7898 7.44995 55.7898 7.44995C51.6674 6.16206 47.1917 5.42895 42.4804 5.42895C37.7691 5.42895 33.3129 6.16206 29.1709 7.44995C29.1709 7.44995 17.6478 -1.70402 14.3106 0.27736C10.679 3.24943 10.3453 19.1797 10.3453 19.1797C3.80831 26.0749 0 34.6147 0 42.4807C0 61.7992 9.2067 70.7947 22.418 74.5395V83H38.7702V76.8577L38.2206 76.7784C39.6339 76.8379 41.0473 76.8577 42.5 76.8577C43.9527 76.8577 45.3661 76.8379 46.7794 76.7784L46.2298 76.8577V83H62.582V74.5395C75.7933 70.7947 85 61.7992 85 42.4807ZM28.4249 37.6264H24.9896L29.1513 31.2661L25.2841 25.4805H28.8764L30.8984 28.5715L32.9203 25.4805H36.5127L32.6455 31.2661L36.8072 37.6264H33.3718L30.8788 33.9014L28.4249 37.6264ZM42.7356 60.7094C36.2771 60.7094 31.0554 57.5789 31.0554 52.7443C31.0554 47.9097 36.2771 43.1742 42.7356 43.1742C49.194 43.1742 54.4157 47.8899 54.4157 52.7443C54.4157 57.5987 49.1744 60.7094 42.7356 60.7094ZM54.3961 37.8443C50.9411 37.8443 48.1536 35.0308 48.1536 31.5435C48.1536 28.0563 50.9411 25.2427 54.3961 25.2427C57.851 25.2427 60.6386 28.0563 60.6386 31.5435C60.6386 35.0308 57.851 37.8443 54.3961 37.8443Z" fill="white"/>
</g>
<defs>
<clipPath id="clip0">
<rect width="85" height="83" fill="white"/>
</clipPath>
</defs>
</svg>
