<svg width="412" height="398" viewBox="0 0 412 398" fill="none" xmlns="http://www.w3.org/2000/svg">
<g clip-path="url(#clip0)">
<mask id="mask0" mask-type="alpha" maskUnits="userSpaceOnUse" x="-41" y="-38" width="573" height="353">
<rect x="-41" y="-38" width="573" height="353" fill="#C4C4C4"/>
</mask>
<g mask="url(#mask0)">
<path fill-rule="evenodd" clip-rule="evenodd" d="M192.075 273.946C191.505 280.026 186.566 284.492 181.151 284.017C175.642 283.542 171.747 278.126 172.317 272.045C172.887 265.965 178.681 260.359 184.096 260.834C189.511 261.404 192.645 267.865 192.075 273.946Z" fill="white"/>
<path fill-rule="evenodd" clip-rule="evenodd" d="M220.573 273.946C221.143 280.026 226.083 284.492 231.497 284.017C236.912 283.542 240.902 278.126 240.332 272.045C239.762 265.965 233.967 260.359 228.553 260.834C223.138 261.404 220.003 267.865 220.573 273.946Z" fill="white"/>
<path fill-rule="evenodd" clip-rule="evenodd" d="M411.319 228.719C411.319 191 392.89 150.05 361.068 116.987C361.068 116.987 359.453 40.5981 341.879 26.3465C325.73 16.8454 269.97 60.7404 269.97 60.7404C250.021 54.5647 228.363 51.0493 205.564 51.0493C182.766 51.0493 161.203 54.5647 141.159 60.7404C141.159 60.7404 85.3986 16.8454 69.2498 26.3465C51.6761 40.5981 50.0612 116.987 50.0612 116.987C18.4286 150.05 0 191 0 228.719C0 321.355 44.5516 364.49 108.482 382.447L108.482 423.016L187.611 423.016V393.563L184.951 393.183C191.791 393.468 198.63 393.563 205.659 393.563C212.689 393.563 219.528 393.468 226.368 393.183L223.708 393.563V423.016H302.837V382.447C366.767 364.49 411.319 321.355 411.319 228.719ZM137.55 205.442H120.926L141.064 174.943L122.351 147.2L139.734 147.2L149.519 162.022L159.303 147.2H176.687L157.973 174.943L178.112 205.442H161.488L149.424 187.58L137.55 205.442ZM206.799 316.129C175.547 316.129 150.279 301.118 150.279 277.935C150.279 254.752 175.547 232.045 206.799 232.045C238.052 232.045 263.32 254.657 263.32 277.935C263.32 301.213 237.957 316.129 206.799 316.129ZM263.225 206.487C246.506 206.487 233.017 192.995 233.017 176.273C233.017 159.552 246.506 146.06 263.225 146.06C279.944 146.06 293.433 159.552 293.433 176.273C293.433 192.995 279.944 206.487 263.225 206.487Z" fill="white"/>
</g>
</g>
<defs>
<clipPath id="clip0">
<rect width="411.319" height="398" fill="white"/>
</clipPath>
</defs>
</svg>
