<svg width="260" height="413" viewBox="0 0 260 413" fill="none" xmlns="http://www.w3.org/2000/svg">
  <title>Change Background Image</title>
  <path fill-rule="evenodd" clip-rule="evenodd"
        d="M203.719 0.840537C166 0.840538 125.05 19.2691 91.9867 51.0917C91.9867 51.0917 15.5981 52.7066 1.34647 70.2803C-8.1546 86.4291 35.7404 142.19 35.7404 142.19C29.5647 162.138 26.0493 183.797 26.0493 206.595C26.0493 229.393 29.5647 250.957 35.7404 271C35.7404 271 -8.15459 326.761 1.34648 342.91C15.5981 360.483 91.9867 362.098 91.9867 362.098C125.05 393.731 166 412.159 203.719 412.159C296.355 412.159 339.49 367.608 357.447 303.678L398.016 303.678L398.016 224.549L368.563 224.549L368.183 227.208C368.468 220.369 368.563 213.529 368.563 206.5C368.563 199.471 368.468 192.631 368.183 185.792L368.563 188.451L398.016 188.451L398.016 109.322L357.447 109.322C339.49 45.3922 296.355 0.840533 203.719 0.840537ZM180.442 274.61L180.442 291.234L149.943 271.095L122.2 289.809L122.2 272.425L137.022 262.641L122.2 252.857L122.2 235.473L149.943 254.186L180.442 234.048L180.442 250.672L162.58 262.736L180.442 274.61ZM291.129 205.36C291.129 236.613 276.118 261.881 252.935 261.881C229.752 261.881 207.045 236.613 207.045 205.36C207.045 174.107 229.657 148.839 252.935 148.839C276.213 148.839 291.129 174.202 291.129 205.36ZM181.487 148.934C181.487 165.653 167.995 179.142 151.273 179.142C134.552 179.142 121.06 165.653 121.06 148.934C121.06 132.216 134.552 118.727 151.273 118.727C167.995 118.727 181.487 132.216 181.487 148.934Z"
        fill="white"/>
</svg>
