<svg width="113" height="32" viewBox="0 0 113 32" fill="none" xmlns="http://www.w3.org/2000/svg">
  <title>GumpChange Logo - Black</title>
  <g clip-path="url(#clip0)">
    <path d="M12.0417 14.1981C11.1168 13.5674 10.1738 13.2611 9.23078 13.2611C8.723 13.2611 8.23335 13.3512 7.79811 13.5314C7.36286 13.7116 6.96389 13.9638 6.63746 14.2882C6.29289 14.6125 6.039 14.9909 5.85765 15.4413C5.6763 15.8738 5.56749 16.3783 5.56749 16.9188C5.56749 17.4413 5.65816 17.9278 5.85765 18.3783C6.039 18.8107 6.29289 19.2071 6.61932 19.5314C6.94576 19.8557 7.32659 20.108 7.77997 20.2882C8.23335 20.4684 8.723 20.5584 9.23078 20.5584C10.2463 20.5584 11.1712 20.2161 12.0417 19.5314V24.0539C10.7179 24.6305 9.46654 24.9008 8.28776 24.9008C7.18151 24.9008 6.12967 24.7206 5.13224 24.3422C4.13481 23.9638 3.26432 23.4413 2.50265 22.7386C1.74097 22.0359 1.14251 21.2071 0.689135 20.2341C0.235757 19.2611 0 18.1801 0 16.9909C0 15.7837 0.217622 14.6846 0.652865 13.6936C1.08811 12.7026 1.68657 11.8557 2.43011 11.135C3.17365 10.4143 4.0804 9.85574 5.11411 9.45934C6.14781 9.06294 7.25405 8.86475 8.45097 8.86475C9.7567 8.86475 10.9536 9.13502 12.0599 9.69357V14.1981H12.0417Z"
          fill="black"/>
    <path d="M15.832 0H21.1818V11.2432C21.9072 10.3604 22.6508 9.76577 23.3943 9.45946C24.1379 9.15315 25.0265 9.00901 26.0239 9.00901C27.9462 9.00901 29.3789 9.53153 30.3582 10.5766C31.3375 11.6216 31.8271 13.045 31.8271 14.8288V24.4144H26.4773V16.7928C26.4773 16.036 26.4229 15.4054 26.2959 14.9369C26.169 14.4685 25.9876 14.1081 25.6975 13.8559C25.226 13.4414 24.6456 13.2432 23.9746 13.2432C23.0679 13.2432 22.3787 13.5135 21.8891 14.0541C21.3994 14.5946 21.1637 15.3694 21.1637 16.3604V24.4144H15.832V0Z"
          fill="black"/>
    <path d="M56.2552 9.33311H61.605V11.243C62.3305 10.3601 63.074 9.76555 63.8175 9.45924C64.5611 9.15293 65.4497 9.00879 66.4471 9.00879C67.5171 9.00879 68.4239 9.18897 69.1855 9.53131C69.9472 9.87365 70.6001 10.3601 71.126 10.9908C71.5612 11.4953 71.8514 12.0719 72.0146 12.7025C72.1778 13.3331 72.2504 14.0538 72.2504 14.8466V24.4322H66.9005V16.7926C66.9005 16.0538 66.8461 15.4412 66.7373 14.9908C66.6285 14.5223 66.429 14.1619 66.157 13.8917C65.9212 13.6574 65.6492 13.4953 65.359 13.3872C65.0689 13.2971 64.7424 13.243 64.416 13.243C63.5092 13.243 62.8201 13.5133 62.3305 14.0538C61.8408 14.5944 61.605 15.3691 61.605 16.3601V24.4142H56.2552V9.33311Z"
          fill="black"/>
    <path d="M92.9063 9.33336V23.3874C92.9063 24.2343 92.8519 24.991 92.7612 25.6577C92.6705 26.3243 92.5254 26.9189 92.3441 27.4234C92.1083 28.0721 91.7456 28.6667 91.2379 29.2253C90.7301 29.7838 90.1316 30.2703 89.4243 30.6847C88.7171 31.0991 87.901 31.4234 87.0124 31.6577C86.1056 31.8919 85.1445 32.018 84.0926 32.018C82.9138 32.018 81.8257 31.8739 80.8283 31.5856C79.849 31.2973 78.9785 30.8829 78.235 30.3604C77.4914 29.8379 76.893 29.2253 76.4215 28.5406C75.9499 27.8379 75.6235 27.0811 75.4784 26.2523H81.5174C81.8983 27.2613 82.7325 27.7478 84.0563 27.7478C85.1807 27.7478 86.0512 27.4415 86.6497 26.8108C87.2481 26.1802 87.5564 25.3153 87.5564 24.1982V22.7568C87.1574 23.1352 86.7766 23.4415 86.4139 23.6757C86.0512 23.928 85.6704 24.1262 85.3077 24.2703C84.9268 24.4325 84.546 24.5406 84.1289 24.6126C83.7118 24.6847 83.2584 24.7207 82.7687 24.7207C81.6806 24.7207 80.6832 24.5406 79.7764 24.1622C78.8697 23.7838 78.0899 23.2613 77.4189 22.5946C76.766 21.928 76.2401 21.1352 75.8774 20.1982C75.5147 19.2613 75.3333 18.2343 75.3333 17.0991C75.3333 15.946 75.5328 14.8649 75.9318 13.8739C76.3308 12.8829 76.8567 12.018 77.5458 11.2793C78.235 10.5406 79.0329 9.96399 79.9759 9.54958C80.919 9.13516 81.9345 8.91895 83.0408 8.91895C84.8362 8.91895 86.3414 9.58561 87.5746 10.9189V9.33336H92.9063ZM80.8827 16.7928C80.8827 17.2793 80.9734 17.7478 81.1547 18.1622C81.3361 18.5766 81.5718 18.955 81.8801 19.2613C82.1884 19.5676 82.5511 19.8198 82.9682 20C83.3853 20.1802 83.8569 20.2703 84.3465 20.2703C84.818 20.2703 85.2714 20.1802 85.6885 20C86.1056 19.8198 86.4864 19.5856 86.7766 19.2613C87.0849 18.955 87.3207 18.5766 87.5202 18.1622C87.7015 17.7478 87.8103 17.2973 87.8103 16.8289C87.8103 16.3424 87.7196 15.8919 87.5202 15.4775C87.3388 15.0631 87.0849 14.7027 86.7585 14.3964C86.4502 14.0901 86.0693 13.8379 85.6522 13.6577C85.2351 13.4775 84.7817 13.3874 84.3284 13.3874C83.8569 13.3874 83.4035 13.4775 83.0045 13.6757C82.5874 13.8559 82.2247 14.1081 81.9164 14.4144C81.6081 14.7207 81.3542 15.0811 81.1547 15.4955C80.9734 15.8919 80.8827 16.3243 80.8827 16.7928Z"
          fill="black"/>
    <path d="M101.72 17.7658C101.72 20.0541 102.808 21.2072 104.984 21.2072C106.145 21.2072 107.034 20.7388 107.614 19.8018H112.801C111.749 23.2613 109.137 24.973 104.948 24.973C103.66 24.973 102.5 24.7748 101.43 24.3964C100.36 24.018 99.4531 23.4775 98.6914 22.7568C97.9297 22.0541 97.3494 21.2072 96.9323 20.2343C96.5152 19.2613 96.3157 18.1622 96.3157 16.937C96.3157 15.6757 96.5152 14.5586 96.9141 13.5316C97.3131 12.5226 97.8753 11.6577 98.6007 10.955C99.3261 10.2523 100.215 9.71174 101.248 9.31535C102.282 8.91895 103.461 8.73877 104.749 8.73877C106.036 8.73877 107.179 8.93697 108.212 9.31535C109.246 9.69372 110.098 10.2523 110.824 10.973C111.531 11.6937 112.075 12.5946 112.456 13.6397C112.837 14.6847 113.018 15.8739 113.018 17.1892V17.7478H101.72V17.7658ZM107.995 14.6847C107.813 13.946 107.451 13.3334 106.907 12.8829C106.363 12.4325 105.673 12.1982 104.894 12.1982C104.059 12.1982 103.388 12.4144 102.862 12.8469C102.337 13.2793 102.01 13.8919 101.865 14.6667H107.995V14.6847Z"
          fill="black"/>
    <path fill-rule="evenodd" clip-rule="evenodd"
          d="M52.8095 24.7745C53.9157 23.4952 54.5686 21.6934 54.5686 19.1709C54.5686 17.243 53.6256 15.1529 51.9934 13.4592C51.9934 13.4592 51.9209 9.56732 51.0141 8.82858C50.1799 8.34209 47.3145 10.5763 47.3145 10.5763C46.2808 10.252 45.1746 10.0718 44.0139 10.0718C42.8533 10.0718 41.7289 10.252 40.7133 10.5763C40.7133 10.5763 37.848 8.34209 37.0138 8.82858C36.107 9.5493 36.0345 13.4592 36.0345 13.4592C34.4023 15.1529 33.4593 17.243 33.4593 19.1709C33.4593 21.6934 34.1122 23.4952 35.2184 24.7745H52.8095ZM40.4957 17.9817H39.6434L40.6771 16.4322L39.7159 15.0088H40.6045L41.1123 15.7655L41.6201 15.0088H42.5087L41.5476 16.4322L42.5813 17.9817H41.7289L41.1123 17.0628L40.4957 17.9817ZM44.0683 23.6394C42.4725 23.6394 41.1667 22.8646 41.1667 21.6934C41.1667 20.5043 42.4725 19.3511 44.0683 19.3511C45.6642 19.3511 46.97 20.5043 46.97 21.6934C46.97 22.8646 45.6642 23.6394 44.0683 23.6394ZM46.97 18.0358C46.1176 18.0358 45.4103 17.3511 45.4103 16.4862C45.4103 15.6214 46.0995 14.9367 46.97 14.9367C47.8223 14.9367 48.5296 15.6214 48.5296 16.4862C48.5296 17.3511 47.8223 18.0358 46.97 18.0358Z"
          fill="black"/>
  </g>
  <defs>
    <clipPath id="clip0">
      <rect width="113" height="32" fill="white"/>
    </clipPath>
  </defs>
</svg>
