<svg width="147" height="147" viewBox="0 0 147 147" fill="none" xmlns="http://www.w3.org/2000/svg">
<path fill-rule="evenodd" clip-rule="evenodd" d="M79.7548 84.6424C80.7563 85.8489 80.6783 87.5484 79.6179 88.4363C78.5404 89.3413 76.8565 89.0587 75.855 87.8522C74.8536 86.6457 74.8783 84.5854 75.9387 83.6975C77.0164 82.8268 78.7534 83.4358 79.7548 84.6424Z" fill="black"/>
<path fill-rule="evenodd" clip-rule="evenodd" d="M84.8819 79.5155C86.0885 80.517 87.7879 80.439 88.6758 79.3786C89.5637 78.3182 89.2983 76.6172 88.0917 75.6157C86.8852 74.6142 84.8249 74.639 83.937 75.6994C83.0664 76.7771 83.6754 78.5141 84.8819 79.5155Z" fill="black"/>
<path fill-rule="evenodd" clip-rule="evenodd" d="M110.988 36.987C104.14 30.1387 93.3899 26.0195 81.6616 25.7418C81.6616 25.7418 67.502 12.1633 61.7528 12.7376C57.1224 13.9179 55.0599 31.9195 55.0599 31.9195C50.3496 34.3872 45.8148 37.6456 41.7131 41.7473C37.6114 45.849 34.3701 50.3668 31.8853 55.0941C31.8853 55.0941 13.8837 57.1567 12.7034 61.787C12.1291 67.5362 25.7076 81.6958 25.7076 81.6958C26.0195 93.3899 30.1387 104.14 36.987 110.988C53.8057 127.807 69.6526 127.623 84.4147 119.382L91.7804 126.747L106.017 112.511L100.669 107.164L100.122 107.573C101.404 106.394 102.652 105.181 103.916 103.916C105.181 102.652 106.394 101.404 107.573 100.122L107.164 100.669L112.511 106.017L126.747 91.7804L119.382 84.4147C127.623 69.6526 127.807 53.8057 110.988 36.987ZM57.5076 82.0153L54.5168 85.0061L52.6027 75.8457L44.1989 74.1755L47.3264 71.0479L51.7778 71.9786L50.8471 67.5273L53.9746 64.3998L55.6448 72.8036L64.8052 74.7177L61.8144 77.7085L56.4009 76.636L57.5076 82.0153ZM90.0628 89.6526C84.44 95.2753 77.1685 97.0959 72.9595 92.8869C68.7505 88.6779 69.1738 80.0091 74.7965 74.3863C80.4193 68.7636 89.0708 68.3231 93.2971 72.5493C97.5233 76.7756 95.6684 84.0469 90.0628 89.6526ZM80.308 59.5944C77.3001 62.6023 72.4237 62.5796 69.3877 59.5436C66.3517 56.5076 66.3291 51.6313 69.337 48.6234C72.3449 45.6155 77.2212 45.6382 80.2572 48.6742C83.2932 51.7102 83.3159 56.5865 80.308 59.5944Z" fill="black"/>
</svg>
